HIERARCHY
ROOT hip
{
  OFFSET 0.0 0.0 0.0
  CHANNELS 6 Xposition Yposition Zposition Zrotation Yrotation Xrotation
  JOINT torso
  {
    OFFSET 0.0 0.0 0.0
    CHANNELS 3 Zrotation Xrotation Yrotation
    JOINT neck
    {
      OFFSET -8.600829999999974 327.7417449999999 60.895874000000276
      CHANNELS 3 Zrotation Xrotation Yrotation
      JOINT head
      {
        OFFSET 0.7211610000001087 266.848846 239.12060599999995
        CHANNELS 3 Zrotation Xrotation Yrotation
        End Site
        {
          OFFSET 0.0 0.0 0.0
        }
      }
    }
    JOINT left_collar
    {
      OFFSET -8.600829999999974 327.7417449999999 60.895874000000276
      CHANNELS 3 Zrotation Xrotation Yrotation
      JOINT left_upper_arm
      {
        OFFSET -122.29599000000002 -5.21875 31.800903999999946
        CHANNELS 3 Zrotation Xrotation Yrotation
        JOINT left_forearm
        {
          OFFSET -195.94708199999997 63.423126000000025 226.99352999999996
          CHANNELS 3 Zrotation Xrotation Yrotation
          JOINT left_hand
          {
            OFFSET -232.19226099999992 28.282164999999964 80.86950699999989
            CHANNELS 3 Zrotation Xrotation Yrotation
            End Site
            {
              OFFSET 0.0 0.0 0.0
            }
          }
        }
      }
    }
    JOINT right_collar
    {
      OFFSET -8.600829999999974 327.7417449999999 60.895874000000276
      CHANNELS 3 Zrotation Xrotation Yrotation
      JOINT right_upper_arm
      {
        OFFSET 168.41261300000002 -11.913361000000066 -9.389160000000174
        CHANNELS 3 Zrotation Xrotation Yrotation
        JOINT right_forearm
        {
          OFFSET 213.49279800000005 104.82293699999997 83.52258300000017
          CHANNELS 3 Zrotation Xrotation Yrotation
          JOINT right_hand
          {
            OFFSET 222.067185 62.005675999999994 -110.52026300000034
            CHANNELS 3 Zrotation Xrotation Yrotation
            End Site
            {
              OFFSET 0.0 0.0 0.0
            }
          }
        }
      }
    }
  }
}
MOTION
Frames: 16
Frame Time: 0.01
-528.7518043793448 127.96953134936781 368.1867362394675 5.385939035888909 -17.388860421632096 -10.376119003250205 -2.3490592472789142 9.343496594661845 0.4975657043977348 -7.778611806990745 -10.015776372825526 7.122959519426882 0.0 0.0 0.0 0.09108289378657929 -0.09412871703060242 2.7231444048791804 53.430574810370196 44.545412785752426 18.535452309199567 48.18992992925008 24.856096657972685 -21.574001430877953 0.0 0.0 0.0 -6.914934149025864 -0.22474045436727477 1.235629352158568 -77.79773811120505 21.836643176825277 -13.506245499108093 -40.11301788543289 -13.196659228185322 41.4232581132352 0.0 0.0 0.0
-528.9496424180802 127.83145323970712 368.5481182130252 5.400049547241271 -17.46349051624581 -10.406459867676078 -2.3653064713127896 9.37062754649288 0.49945838312548413 -7.750866224974104 -10.016659927945819 7.097637643778393 0.0 0.0 0.0 0.09065072370809163 -0.0922139922333992 2.676272043697289 53.66698498043387 44.68788514478208 18.580868002306623 47.979262473858874 24.55459024243271 -21.13156585399485 0.0 0.0 0.0 -6.9267494195233255 -0.22807383948327378 1.214422860986042 -77.78058998309608 21.741348517243235 -13.85313526285145 -40.61095512259006 -13.262642919539212 41.205183131539954 0.0 0.0 0.0
-529.1875885932592 127.69741975221194 368.90747357134086 5.414474852513731 -17.53560012485393 -10.42827689010418 -2.3818763453269183 9.398650216182995 0.5013829858397957 -7.723079278293442 -10.021003410172318 7.072325847709892 0.0 0.0 0.0 0.08983180941921244 -0.09034609147065469 2.6283699629581854 53.9096873282312 44.82876707360503 18.639451175456443 47.77700394682483 24.25932691054236 -20.68558930387429 0.0 0.0 0.0 -6.939966396268398 -0.23166622426839964 1.1917749357961915 -77.76224503070095 21.64166164348465 -14.216374461568984 -41.12541621804971 -13.332784299829745 40.98026590705727 0.0 0.0 0.0
-529.4675032660779 127.5687591507807 369.26347575890446 5.4292767154718025 -17.60446922471844 -10.441203426168116 -2.3986403083224155 9.427276585413548 0.5033236095811352 -7.69553216320673 -10.028978194996593 7.047282812718019 0.0 0.0 0.0 0.0886191133210299 -0.08855144890337602 2.5800022029409004 54.15709663370565 44.96737183248209 18.71007568734351 47.58377269343446 23.972570278758855 -20.24121669624071 0.0 0.0 0.0 -6.95448759242484 -0.23547841347472187 1.1679586445533563 -77.74271470079829 21.53827346097018 -14.593454220032063 -41.65166699408589 -13.406437059239943 40.751796823466194 0.0 0.0 0.0
-529.79096135531 127.44676169969709 369.6148966507436 5.444510509344125 -17.66944381485851 -10.444909574867212 -2.4154638376823563 9.456239900266993 0.5052641454900539 -7.668471692536919 -10.040688130157811 7.022734874000288 0.0 0.0 0.0 0.08699903244219395 -0.08685695819967118 2.531706900945593 54.40749809464517 45.10306988141253 18.7913101095675 47.40031060431214 23.696433468378792 -19.803239059467117 0.0 0.0 0.0 -6.970211521276741 -0.2394735853737616 1.1432266864482508 -77.7220326906989 21.431928247364453 -14.981668198842113 -42.18485156398424 -13.48279492198627 40.523446377039626 0.0 0.0 0.0
-530.1592154327905 127.33265306922345 369.96062575246356 5.460223269595605 -17.729944306248026 -10.439106361455758 -2.4322081090601024 9.48529435102137 0.5071884506717389 -7.642104307992832 -10.05616058997566 6.9988704573355935 0.0 0.0 0.0 0.08495142908099375 -0.08528939739608915 2.4839831902901897 54.65908541964749 45.235306293734325 18.88144879247068 47.22745550494921 23.432829646259027 -19.375979140257815 0.0 0.0 0.0 -6.987033061086115 -0.2436181918594205 1.1178045040863764 -77.70024552829852 21.323419932629218 -15.378116277187207 -42.72006985193132 -13.560888990707907 40.29923217493284 0.0 0.0 0.0
-530.5731642679704 127.2275695505601 370.2996856506201 5.47645219027782 -17.785470819279986 -10.423548695360616 -2.448731838330245 9.514213136186504 0.5090805213246595 -7.616590930152535 -10.075339545626727 6.975835307404357 0.0 0.0 0.0 0.08244974227725617 -0.08387483166588583 2.437278023596086 54.91000441128962 45.36361583733351 18.97855449762069 47.06610252403191 23.183429292510798 -18.963201628254488 0.0 0.0 0.0 -7.004843418244376 -0.24788284499280286 1.0918834656300505 -77.6774034161002 21.213588111291735 -15.779710304849251 -43.25245163740188 -13.639591108346705 40.08347561257297 0.0 0.0 0.0
-531.0333280069207 127.1325358849325 370.63124320476 5.4932236104013 -17.83560533870663 -10.398036924847705 -2.4648932812232216 9.54278510992862 0.5109246675391561 -7.5920427473979535 -10.098081055315726 6.953728603414679 0.0 0.0 0.0 0.07946115008588292 -0.08263801611619481 2.3919732632191324 55.158400549852274 45.487634730321616 19.080511764335213 46.917157625517774 22.949626066793474 -18.56805058492623 0.0 0.0 0.0 -7.023529605495091 -0.25224315888565096 1.0656143219174032 -77.65355205638635 21.103313657594583 -16.18318299833542 -43.77722415426284 -13.717623645142746 39.88074930865778 0.0 0.0 0.0
-531.5398309873693 127.04844638799555 370.9546161925804 5.510552525919603 -17.880010814351863 -10.362416942065604 -2.4805523594477212 9.570810274821437 0.5127056896767168 -7.568518067046331 -10.124151487874094 6.932600077043479 0.0 0.0 0.0 0.07594676568319572 -0.08160182465243913 2.3483735334897338 55.40246872515851 45.60710825202662 19.18508945842523 46.78148698434144 22.73251260530553 -18.193015119485594 0.0 0.0 0.0 -7.042973432004889 -0.25668050435247514 1.0391012510113562 -77.628725900904 20.99351378485869 -16.58510086452507 -44.289770443721935 -13.79357573268878 39.695816823547396 0.0 0.0 0.0
-532.0923929681984 126.97604988307339 371.26927536572293 5.528442644087092 -17.918427417208314 -10.31657892308001 -2.4955728696792217 9.59809441619097 0.5144090548098842 -7.546020369750655 -10.15322867446935 6.912448262905666 0.0 0.0 0.0 0.07186186493583327 -0.08078673272061417 2.306695441690125 55.640503012192596 45.72189364462783 19.29001029054282 46.65986602717132 22.532866964376513 -17.8399228167969 0.0 0.0 0.0 -7.063050088781149 -0.26118262525711644 1.0123968899458815 -77.60294295193394 20.885136383267017 -16.981881761533526 -44.785676047136704 -13.86592557744868 39.53356653977135 0.0 0.0 0.0
-532.690329305316 126.91593875330143 371.5748421171277 5.5468869742558375 -17.950666274407613 -10.260454917939867 -2.509824721149378 9.624443197443133 0.5160210702902871 -7.5244977187839845 -10.184906046158028 6.893220020246139 0.0 0.0 0.0 0.06715615961106274 -0.08021038067735681 2.267058835121234 55.87094428049145 45.83195805182432 19.393024562285873 46.55293176095878 22.35114979943504 -17.50995899722651 0.0 0.0 0.0 -7.0836264749641265 -0.2657440584481747 0.9854988207687332 -77.57620094451838 20.779153486720425 -17.369817396931435 -45.26076220145935 -13.93306813419042 39.39894181847762 0.0 0.0 0.0
-533.3325603411789 126.868542204092 371.8710821807027 5.565868927361788 -17.976601114025247 -10.194015634924577 -2.5231861437599035 9.649656056300065 0.5175290507530091 -7.503843677622444 -10.218699671196521 6.874811465054235 0.0 0.0 0.0 0.061774150796328385 -0.07988724035275512 2.229480775364725 56.09242348192434 45.9373715790497 19.49198504677296 46.46114151376713 22.18751178982927 -17.20370868909056 0.0 0.0 0.0 -7.104559432198205 -0.2703662931135511 0.9583480232596057 -77.54847451400538 20.676553758014137 -17.745100756020754 -45.71110442428553 -13.993347145117577 39.29686963881122 0.0 0.0 0.0
-534.0176299879676 126.8341236221276 372.15789597213893 5.585363875973532 -17.99615834502114 -10.117266886087306 -2.5355458092731675 9.673520258540632 0.5189214745627558 -7.483899882593455 -10.254057966133608 6.857070444648122 0.0 0.0 0.0 0.05565562180870437 -0.07982840050898386 2.193872892353084 56.303798665901915 46.038295891519645 19.584919754933566 46.384740488395686 22.041810340122282 -16.921217314228446 0.0 0.0 0.0 -7.125694037817928 -0.2750576017555308 0.9308298194556114 -77.51971283032941 20.578333940673375 -18.103858162487118 -46.13303620225015 -14.04509038739893 39.23218985029027 0.0 0.0 0.0
-534.743733171955 126.81278174894241 372.43530633073925 5.605341102249606 -18.009306171943475 -10.030246260433511 -2.546804803707918 9.695805475384478 0.5201881249374695 -7.464460400280457 -10.290373728780883 6.839800670189688 0.0 0.0 0.0 0.04873635479884551 -0.08004147842774166 2.1600427333625913 56.50418409314356 46.13496905835052 19.670099372397242 46.32373968270133 21.91363423954357 -16.662065570967723 0.0 0.0 0.0 -7.146862068687005 -0.27983247710966974 0.9027777965696958 -77.48983716240157 20.485489301655814 -18.4421853984033 -46.523138368899964 -14.086646939630159 39.2095869119535 0.0 0.0 0.0
-535.5087514824819 126.80445526731124 372.70344451751333 5.625766029255424 -18.01604339578674 -9.933020626685396 -2.5568783743588104 9.716259253954313 0.5213202092974891 -7.445277961897251 -10.326998037452654 6.822767587464714 0.0 0.0 0.0 0.04094917075144332 -0.080530655892095 2.127699618357281 56.69297021621855 46.22768757614457 19.746096350159263 46.277904869035766 21.80233474930625 -16.42545382930947 0.0 0.0 0.0 -7.167880706754856 -0.2847106219300958 0.8739810784875037 -77.45873790054101 20.399003172593684 -18.75618705426823 -46.878215602282104 -14.116425372385663 39.233525586973514 0.0 0.0 0.0
-536.3102960654467 126.8089303281713 372.96253533116743 5.646602602528106 -18.016388581423133 -9.825684987520678 -2.5656973611279237 9.734603750862767 0.5223104490153317 -7.426072092356208 -10.363255484734827 6.805705997408991 0.0 0.0 0.0 0.0322253867819495 -0.08129682909664356 2.096465303448395 56.86983372990363 46.31678664823606 19.811832968329806 46.2467565336974 21.707061492275713 -16.210291467351944 0.0 0.0 0.0 -7.188551531958302 -0.2897154667792865 0.8441950920791308 -77.42627068190437 20.319835774896823 -19.042018062582695 -47.195262214940854 -14.132931962381864 39.30819157141153 0.0 0.0 0.0
